<svg width="48" height="48" viewBox="0 0 24 24" fill="#25314C" xmlns="http://www.w3.org/2000/svg"><path d="M18.692 22.75H5.309a4.047 4.047 0 0 1-3.577-5.95L8.339 4.442a4.153 4.153 0 0 1 7.322 0L22.268 16.8a4.046 4.046 0 0 1-3.576 5.952ZM12 3.75a2.614 2.614 0 0 0-2.339 1.4L3.055 17.505a2.546 2.546 0 0 0 2.254 3.745h13.383a2.546 2.546 0 0 0 2.253-3.745L14.339 5.149A2.614 2.614 0 0 0 12 3.75ZM12.75 14v-4a.75.75 0 0 0-1.5 0v4a.75.75 0 0 0 1.5 0Zm.27 3a1 1 0 0 0-1-1h-.01a1 1 0 1 0 1.01 1Z" fill="#25314C"></path></svg>