<svg width="48" height="48" viewBox="0 0 24 24" fill="#25314C" xmlns="http://www.w3.org/2000/svg"><path d="M18.75 6.3V6A3.383 3.383 0 0 0 15 2.25H5A2.752 2.752 0 0 0 2.25 5v13A3.383 3.383 0 0 0 6 21.75h12A3.383 3.383 0 0 0 21.75 18v-8c0-2.155-1.058-3.447-3-3.7Zm1.5 9.453H16.5a1.75 1.75 0 0 1 0-3.5h3.75ZM5 3.75h10c1.577 0 2.25.673 2.25 2.25v.25H5a1.25 1.25 0 0 1 0-2.5Zm13 16.5H6c-1.577 0-2.25-.673-2.25-2.25V7.449A2.723 2.723 0 0 0 5 7.75h13c1.577 0 2.25.673 2.25 2.25v.75H16.5a3.25 3.25 0 0 0 0 6.5h3.75V18c0 1.577-.673 2.25-2.25 2.25ZM17.01 13h.01a1 1 0 1 1-.01 0Z" fill="#25314C"></path></svg>